<svg xmlns="http://www.w3.org/2000/svg" xmlns:xlink="http://www.w3.org/1999/xlink" width="929.9" height="136.20000000000002"><path fill="currentColor" d="M24.30 106.90L24.30 106.90Q17.90 106.90 13.35 106Q8.80 105.10 4.80 103.60L4.80 103.60L7.30 97.10Q11 98.70 15.75 99.40Q20.50 100.10 24.20 100.10L24.20 100.10Q30.10 100.10 33.80 98.10Q37.50 96.10 39.30 93Q41.10 89.90 41.10 86.70L41.10 86.70Q41.10 81.50 37.55 78.65Q34 75.80 26.70 75.80L26.70 75.80L19.80 75.80L19.80 69L24.40 69Q29.70 69 32.95 67.35Q36.20 65.70 37.65 63.25Q39.10 60.80 39.10 58.40L39.10 58.40Q39.10 55.10 36.50 52.70Q33.90 50.30 27.80 50.30L27.80 50.30Q23.80 50.30 20 51.25Q16.20 52.20 13.60 53.50L13.60 53.50L10.80 47.20Q15.30 45.10 19.20 44.30Q23.10 43.50 28.20 43.50L28.20 43.50Q38.80 43.50 43.60 49.10L43.60 49.10Q46.20 47.50 48.75 46.95Q51.30 46.40 53.60 46.40L53.60 46.40Q61.90 46.40 65.30 52.70Q68.70 59 68.70 71.80L68.70 71.80L68.70 86.20Q68.70 91 69.45 94.10Q70.20 97.20 72.85 98.65Q75.50 100.10 81.10 100.10L81.10 100.10L81.10 106.90L80.10 106.90Q71.90 106.90 67.80 104.30Q63.70 101.70 62.35 97Q61 92.30 61 86.20L61 86.20L61 71.80Q61 64.60 60.10 60.55Q59.20 56.50 57.35 54.85Q55.50 53.20 52.70 53.20L52.70 53.20Q51.30 53.20 49.60 53.65Q47.90 54.10 46.50 54.90L46.50 54.90Q46.80 56.40 46.80 58L46.80 58Q46.80 62.50 44.65 65.90Q42.50 69.30 38 71.30L38 71.30Q42.60 72.60 45.65 76.65Q48.70 80.70 48.70 86.60L48.70 86.60Q48.70 93 45.55 97.55Q42.40 102.10 36.90 104.50Q31.40 106.90 24.30 106.90ZM66.90 36.60L66.90 36.60Q64.70 36.60 63.20 35.20Q61.70 33.80 61.70 31L61.70 31Q61.70 28.10 63.20 26.75Q64.70 25.40 66.90 25.40L66.90 25.40Q68.90 25.40 70.45 26.75Q72 28.10 72 31L72 31Q72 33.80 70.45 35.20Q68.90 36.60 66.90 36.60ZM116.80 106.90L116.80 106.90Q111.80 106.90 108.75 104.90Q105.70 102.90 104.40 99.45Q103.10 96 103.10 91.80L103.10 91.80Q103.10 88.30 103.95 83.80Q104.80 79.30 105.50 75.80L105.50 75.80Q105.90 74.10 106 72.60Q106.10 71.10 106.10 69.50L106.10 69.50L89.50 69.50L89.50 62.70L103.60 62.70Q109.30 62.70 111.55 64.65Q113.80 66.60 113.80 70.50L113.80 70.50Q113.80 72.60 113.35 74.90Q112.90 77.20 112.50 78.90L112.50 78.90Q111.60 82.80 111.20 85.75Q110.80 88.70 110.80 92.50L110.80 92.50Q110.80 95.60 112.15 97.85Q113.50 100.10 117.20 100.10L117.20 100.10Q121 100.10 124.80 97.80Q128.60 95.50 132.20 91.65Q135.80 87.80 139.15 83.05Q142.50 78.30 145.60 73.25Q148.70 68.20 151.40 63.60L151.40 63.60Q155.10 57.40 158.05 52.90Q161 48.40 164.70 45.95Q168.40 43.50 174.30 43.50L174.30 43.50Q178.40 43.50 181.50 45.25Q184.60 47 186.35 49.95Q188.10 52.90 188.10 56.50L188.10 56.50Q188.10 59.70 186.60 63.10Q185.10 66.50 181.85 68.75Q178.60 71 173.20 71L173.20 71Q170.10 71 167.45 70.40Q164.80 69.80 162.90 68.90L162.90 68.90L165.70 62.70Q166.90 63.30 168.75 63.75Q170.60 64.20 172.90 64.20L172.90 64.20Q176.50 64.20 178.70 61.95Q180.90 59.70 180.90 56.50L180.90 56.50Q180.90 54.20 179.15 52.25Q177.40 50.30 173.90 50.30L173.90 50.30Q170.60 50.30 168 52.35Q165.40 54.40 163.05 58.10Q160.70 61.80 157.80 66.80L157.80 66.80Q153.20 74.90 148.45 82.10Q143.70 89.30 138.65 94.90Q133.60 100.50 128.20 103.70Q122.80 106.90 116.80 106.90ZM225.80 113.50L225.80 113.50L219.40 110.10Q221.80 105.50 224.55 103.10Q227.30 100.70 229.20 99.40L229.20 99.40Q230.30 98.60 230.55 98.20Q230.80 97.80 230.80 97.50L230.80 97.50Q230.80 96.70 229.00 96L229.00 96Q227.30 95.30 225.65 94.60Q224.00 93.90 222.95 92.65Q221.90 91.40 221.90 89.10L221.90 89.10Q221.90 87.10 223.10 85.75Q224.30 84.40 225.75 83.50Q227.20 82.60 227.80 82.30L227.80 82.30Q228.90 81.60 229.85 81.20Q230.80 80.80 230.80 80.50L230.80 80.50Q230.80 80 229.00 79.30L229.00 79.30Q226.30 78.20 224.10 77Q221.90 75.80 221.90 72.40L221.90 72.40Q221.90 69.90 223.75 68.45Q225.60 67 227.80 65.60L227.80 65.60Q228.80 65 229.80 64.50Q230.80 64 230.80 63.70L230.80 63.70Q230.80 63.50 230.65 63.30Q230.50 63.10 229.80 62.70L229.80 62.70Q227.70 61.30 225.85 58.55Q224.00 55.80 224.00 51.20L224.00 51.20L224.00 50.90Q216.90 52.50 211.90 57.40Q206.90 62.30 204.30 69.45Q201.70 76.60 201.70 85L201.70 85Q201.70 89.20 202.00 92.60Q202.30 96 203.10 99.35Q203.90 102.70 205.20 106.90L205.20 106.90L197.20 106.90Q195.30 101.70 194.65 95.90Q194.00 90.10 194.00 85.10L194.00 85.10Q194.00 74.70 197.00 66.90Q200.00 59.10 205.10 53.90Q210.20 48.70 216.45 46.10Q222.70 43.50 229.10 43.50L229.10 43.50Q235.60 43.50 241.85 46.10Q248.10 48.70 253.15 53.90Q258.20 59.10 261.25 66.90Q264.30 74.70 264.30 85.10L264.30 85.10Q264.30 90.10 263.60 95.90Q262.90 101.70 261 106.90L261 106.90L253.00 106.90Q254.40 102.70 255.15 99.35Q255.90 96 256.20 92.60Q256.50 89.20 256.50 85L256.50 85Q256.50 75.90 253.40 68.25Q250.30 60.60 244.55 55.75Q238.80 50.90 230.80 50.40L230.80 50.40L230.80 51Q230.80 54.30 232.45 55.95Q234.10 57.60 235.20 58.70L235.20 58.70Q236.20 59.70 237.40 60.80Q238.60 61.90 238.60 63.80L238.60 63.80Q238.60 65.40 237.25 67.05Q235.90 68.70 231.50 71.20L231.50 71.20Q230.00 72 230.00 72.30L230.00 72.30Q230.00 72.50 230.80 72.85Q231.60 73.20 232.60 73.70L232.60 73.70Q235.30 74.70 237.65 76.05Q240.00 77.40 240.00 79.90L240.00 79.90Q240.00 82.10 237.65 83.80Q235.30 85.50 233.20 86.90L233.20 86.90Q232.00 87.60 231.00 88.20Q230.00 88.80 230.00 89L230.00 89Q230.00 89.20 230.90 89.50Q231.80 89.80 232.80 90.30L232.80 90.30Q235.50 91.50 237.75 92.80Q240.00 94.10 240.00 96.50L240.00 96.50Q240.00 98.80 238.40 100.60Q236.80 102.40 234.30 104.10L234.30 104.10Q232.30 105.50 230.10 107.65Q227.90 109.80 225.80 113.50ZM322.10 106.90L281 106.90L281 35.50L322.10 35.50L322.10 106.90ZM286.10 40.60L286.10 101.80L317 101.80L317 40.60L286.10 40.60ZM389.40 106.90L389.40 106.90Q384.20 106.90 380.40 102.60Q376.60 98.30 376.60 90.10L376.60 90.10Q376.60 84.60 377.70 79.30Q378.80 74 379.80 69.40L379.80 69.40L366 69.40L366 62.60L380.90 62.60Q381.10 60.70 381.20 58.80Q381.30 56.90 381.30 55.10L381.30 55.10L366 55.10L366 48.30L380.60 48.30Q379.40 43.80 376.35 40.60Q373.30 37.40 366.60 35.70L366.60 35.70L368.20 29Q373.30 30.70 377.30 32.90Q381.30 35.10 384.10 38.70Q386.90 42.30 388.20 48.30L388.20 48.30L402.90 48.30L402.90 55.10L388.90 55.10L388.90 56.50Q388.90 60.70 388.20 65.25Q387.50 69.80 386.60 74.20Q385.70 78.60 385 82.50Q384.30 86.40 384.30 89.30L384.30 89.30Q384.30 100.10 390 100.10L390 100.10Q393.40 100.10 396.80 97.55Q400.20 95 403.55 90.70Q406.90 86.40 410.25 81.05Q413.60 75.70 417 70.10L417 70.10L421.60 62.50Q426 55.30 429.40 51.15Q432.80 47 436.25 45.25Q439.70 43.50 444 43.50L444 43.50Q449.20 43.50 452.95 46.20Q456.70 48.90 458.60 53.60L458.60 53.60L452.30 56.30Q451 52.90 448.80 51.60Q446.60 50.30 443.80 50.30L443.80 50.30Q440.40 50.30 437.45 52.70Q434.50 55.10 431 60.80L431 60.80L423.90 72.60Q420.60 78 417 83.95Q413.40 89.90 409.20 95.15Q405 100.40 400.10 103.65Q395.20 106.90 389.40 106.90ZM498.20 113.50L498.20 113.50L491.80 110.10Q494.20 105.50 496.95 103.10Q499.70 100.70 501.60 99.40L501.60 99.40Q502.70 98.60 502.95 98.20Q503.20 97.80 503.20 97.50L503.20 97.50Q503.20 96.70 501.40 96L501.40 96Q499.70 95.30 498.05 94.60Q496.40 93.90 495.35 92.65Q494.30 91.40 494.30 89.10L494.30 89.10Q494.30 87.10 495.50 85.75Q496.70 84.40 498.15 83.50Q499.60 82.60 500.20 82.30L500.20 82.30Q501.30 81.60 502.25 81.20Q503.20 80.80 503.20 80.50L503.20 80.50Q503.20 80 501.40 79.30L501.40 79.30Q498.70 78.20 496.50 77Q494.30 75.80 494.30 72.40L494.30 72.40Q494.30 69.90 496.15 68.45Q498 67 500.20 65.60L500.20 65.60Q501.20 65 502.20 64.50Q503.20 64 503.20 63.70L503.20 63.70Q503.20 63.50 503.05 63.30Q502.90 63.10 502.20 62.70L502.20 62.70Q500.10 61.30 498.25 58.55Q496.40 55.80 496.40 51.20L496.40 51.20L496.40 50.90Q489.30 52.50 484.30 57.40Q479.30 62.30 476.70 69.45Q474.10 76.60 474.10 85L474.10 85Q474.10 89.20 474.40 92.60Q474.70 96 475.50 99.35Q476.30 102.70 477.60 106.90L477.60 106.90L469.60 106.90Q467.70 101.70 467.05 95.90Q466.40 90.10 466.40 85.10L466.40 85.10Q466.40 74.70 469.40 66.90Q472.40 59.10 477.50 53.90Q482.60 48.70 488.85 46.10Q495.10 43.50 501.50 43.50L501.50 43.50Q508 43.50 514.25 46.10Q520.50 48.70 525.55 53.90Q530.60 59.10 533.65 66.90Q536.70 74.70 536.70 85.10L536.70 85.10Q536.70 90.10 536 95.90Q535.30 101.70 533.40 106.90L533.40 106.90L525.40 106.90Q526.80 102.70 527.55 99.35Q528.30 96 528.60 92.60Q528.90 89.20 528.90 85L528.90 85Q528.90 75.90 525.80 68.25Q522.70 60.60 516.95 55.75Q511.20 50.90 503.20 50.40L503.20 50.40L503.20 51Q503.20 54.30 504.85 55.95Q506.50 57.60 507.60 58.70L507.60 58.70Q508.60 59.70 509.80 60.80Q511 61.90 511 63.80L511 63.80Q511 65.40 509.65 67.05Q508.30 68.70 503.90 71.20L503.90 71.20Q502.40 72 502.40 72.30L502.40 72.30Q502.40 72.50 503.20 72.85Q504 73.20 505 73.70L505 73.70Q507.70 74.70 510.05 76.05Q512.40 77.40 512.40 79.90L512.40 79.90Q512.40 82.10 510.05 83.80Q507.70 85.50 505.60 86.90L505.60 86.90Q504.40 87.60 503.40 88.20Q502.40 88.80 502.40 89L502.40 89Q502.40 89.20 503.30 89.50Q504.20 89.80 505.20 90.30L505.20 90.30Q507.90 91.50 510.15 92.80Q512.40 94.10 512.40 96.50L512.40 96.50Q512.40 98.80 510.80 100.60Q509.20 102.40 506.70 104.10L506.70 104.10Q504.70 105.50 502.50 107.65Q500.30 109.80 498.20 113.50ZM594.50 106.90L553.40 106.90L553.40 35.50L594.50 35.50L594.50 106.90ZM558.50 40.60L558.50 101.80L589.40 101.80L589.40 40.60L558.50 40.60ZM633 98.90L633 98.90Q624.10 98.90 618.75 94.20Q613.40 89.50 613.40 81.80L613.40 81.80Q613.40 76.10 615.80 71.15Q618.20 66.20 622.30 62.50L622.30 62.50Q618.90 61.30 615.65 59.50Q612.40 57.70 609.10 55.20L609.10 55.20L612.90 49.60Q616.90 52.40 620.20 54.20Q623.50 56 626.85 56.80Q630.20 57.60 634.40 57.60L634.40 57.60Q640.60 57.60 646.55 56.10Q652.50 54.60 656.90 53.20L656.90 53.20Q661.40 51.80 666.90 50.40Q672.40 49 678.40 49L678.40 49Q685.80 49 691.70 51.35Q697.60 53.70 703.70 58.20L703.70 58.20L699.50 63.60Q696.10 61 692.80 59.30Q689.50 57.60 685.80 56.70Q682.10 55.80 677.10 55.80L677.10 55.80Q672.50 55.80 667.70 57.15Q662.90 58.50 659 59.70L659 59.70Q654.10 61.30 647.45 62.85Q640.80 64.40 634.20 64.40L634.20 64.40Q632.10 64.40 630.10 64.20L630.10 64.20Q625.90 67.20 623.50 71.70Q621.10 76.20 621.10 81.60L621.10 81.60Q621.10 86.40 624.10 89.25Q627.10 92.10 633.10 92.10L633.10 92.10Q639 92.10 644.50 91Q650 89.90 656.70 87.90L656.70 87.90Q661.70 86.40 667.05 85.05Q672.40 83.70 678.40 83.70L678.40 83.70Q685.80 83.70 691.70 86.05Q697.60 88.40 703.70 92.90L703.70 92.90L699.50 98.30Q696.10 95.70 692.80 94Q689.50 92.30 685.80 91.40Q682.10 90.50 677.10 90.50L677.10 90.50Q672.50 90.50 667.90 91.80Q663.30 93.10 659 94.30L659 94.30Q653.60 95.80 647.05 97.35Q640.50 98.90 633 98.90ZM759.30 106.90L718.20 106.90L718.20 35.50L759.30 35.50L759.30 106.90ZM723.30 40.60L723.30 101.80L754.20 101.80L754.20 40.60L723.30 40.60ZM819.30 106.90L778.20 106.90L778.20 35.50L819.30 35.50L819.30 106.90ZM783.30 40.60L783.30 101.80L814.20 101.80L814.20 40.60L783.30 40.60ZM812 36.60L812 36.60Q809.80 36.60 808.30 35.20Q806.80 33.80 806.80 31L806.80 31Q806.80 28.10 808.30 26.75Q809.80 25.40 812 25.40L812 25.40Q814 25.40 815.55 26.75Q817.10 28.10 817.10 31L817.10 31Q817.10 33.80 815.55 35.20Q814 36.60 812 36.60ZM857.10 64.40L857.10 64.40Q849.80 64.40 843.95 62.05Q838.10 59.70 832 55.20L832 55.20L835.80 49.60Q839.80 52.40 843.10 54.20Q846.40 56 849.75 56.80Q853.10 57.60 857.30 57.60L857.30 57.60Q863.50 57.60 869.45 56.10Q875.40 54.60 879.80 53.20L879.80 53.20Q884.30 51.80 889.80 50.40Q895.30 49 901.30 49L901.30 49Q908.70 49 914.60 51.35Q920.50 53.70 926.60 58.20L926.60 58.20L922.40 63.60Q919 61 915.70 59.30Q912.40 57.60 908.70 56.70Q905 55.80 900 55.80L900 55.80Q895.40 55.80 890.60 57.15Q885.80 58.50 881.90 59.70L881.90 59.70Q877 61.30 870.35 62.85Q863.70 64.40 857.10 64.40ZM846.80 99.10L846.80 99.10Q837.90 99.10 832.30 95.50L832.30 95.50L835.90 89.70Q839.90 92.30 846.80 92.30L846.80 92.30Q853.60 92.30 859 86.90Q864.40 81.50 867 70.70L867 70.70L871.60 70.70Q872.70 75.50 874.25 78.85Q875.80 82.20 877.60 84.50L877.60 84.50Q879.30 83.30 881.15 80.80Q883 78.30 884.55 75.50Q886.10 72.70 886.90 70.70L886.90 70.70L891.50 70.70Q892.60 76.60 894.85 81.50Q897.10 86.40 900.70 89.35Q904.30 92.30 909.20 92.30L909.20 92.30Q912.50 92.30 914.45 91.50Q916.40 90.70 918.90 89.40L918.90 89.40L922.10 95.40Q919 97 916.25 98.05Q913.50 99.10 909.30 99.10L909.30 99.10Q903.60 99.10 899.55 96.80Q895.50 94.50 892.70 90.75Q889.90 87 887.90 82.90L887.90 82.90Q886 85.30 883.15 88.55Q880.30 91.80 876.30 94.30L876.30 94.30Q874.50 92.20 872.50 89.30Q870.50 86.40 869.40 84L869.40 84Q867.30 87.80 864.10 91.30Q860.90 94.80 856.60 96.95Q852.30 99.10 846.80 99.10Z"/></svg>